<mxfile host="app.diagrams.net" modified="2024-03-13T15:49:41.326Z" agent="Mozilla/5.0 (Macintosh; Intel Mac OS X 10_15_7) AppleWebKit/537.36 (KHTML, like Gecko) Chrome/121.0.0.0 Safari/537.36" version="23.1.5" etag="lVumJ_N_DGds8AVxsAv8" type="github">
  <diagram name="Page-1" id="-ye0P11oGltVrw8JA1D2">
    <mxGraphModel>
      <root>
        <mxCell id="0" />
        <mxCell id="1" parent="0" />
      </root>
    </mxGraphModel>
  </diagram>
</mxfile>
